<?xml version="1.0" encoding="UTF-8" standalone="no"?>
<!-- Created with Inkscape (http://www.inkscape.org/) -->

<svg
   width="210mm"
   height="297mm"
   viewBox="0 0 210 297"
   version="1.1"
   id="svg1"
   inkscape:version="1.3.2 (091e20e, 2023-11-25, custom)"
   sodipodi:docname="LSC Large Blue Stroke Logo.svg"
   xmlns:inkscape="http://www.inkscape.org/namespaces/inkscape"
   xmlns:sodipodi="http://sodipodi.sourceforge.net/DTD/sodipodi-0.dtd"
   xmlns="http://www.w3.org/2000/svg"
   xmlns:svg="http://www.w3.org/2000/svg">
  <sodipodi:namedview
     id="namedview1"
     pagecolor="#ffffff"
     bordercolor="#000000"
     borderopacity="0.25"
     inkscape:showpageshadow="2"
     inkscape:pageopacity="0.0"
     inkscape:pagecheckerboard="0"
     inkscape:deskcolor="#d1d1d1"
     inkscape:document-units="mm"
     inkscape:zoom="0.69219276"
     inkscape:cx="396.56583"
     inkscape:cy="561.25984"
     inkscape:window-width="1920"
     inkscape:window-height="991"
     inkscape:window-x="-9"
     inkscape:window-y="-9"
     inkscape:window-maximized="1"
     inkscape:current-layer="layer1" />
  <defs
     id="defs1" />
  <g
     inkscape:label="Layer 1"
     inkscape:groupmode="layer"
     id="layer1">
    <g
       id="g186"
       transform="matrix(1.3135897,0,0,1.3135897,-285.97421,-471.47821)">
      <g
         data-name="Artifact"
         id="g170">
        <g
           data-name="layer1"
           id="g169">
          <path
             d="m 297.638,402.99 c 38.047,0 68.936,30.91 68.936,68.983 0,38.072 -30.889,68.982 -68.936,68.982 -38.047,0 -68.936,-30.91 -68.936,-68.982 0,-38.073 30.889,-68.983 68.936,-68.983 z"
             fill="#0a4776"
             fill-rule="evenodd"
             id="path168" />
          <path
             stroke-width="9.5"
             stroke-linecap="round"
             stroke-linejoin="round"
             fill="none"
             stroke="#0a4776"
             d="m 297.638,402.99 c 38.047,0 68.936,30.91 68.936,68.983 0,38.072 -30.889,68.982 -68.936,68.982 -38.047,0 -68.936,-30.91 -68.936,-68.982 0,-38.073 30.889,-68.983 68.936,-68.983 z"
             id="path169" />
        </g>
      </g>
      <g
         data-name="Artifact"
         id="g171">
        <path
           d="m 284.402,430.951 c 3.196,-4.323 7.772,-5.19 13.136,-2.49 3.571,1.798 5.89,-0.423 3.225,-3.088 -0.992,-0.992 -3.373,-1.195 -14.004,-1.195 -7.045,0 -13.35,0.208 -14.011,0.461 -1.748,0.671 -1.475,1.587 0.632,2.116 1.01,0.253 2.92,1.83 4.246,3.504 2.896,3.656 4.466,3.816 6.776,0.692 z"
           fill="#ffffff"
           data-name="layer1"
           id="path170" />
      </g>
      <g
         data-name="Artifact"
         id="g172">
        <path
           d="m 292.063,455.161 c 7.929,-6.014 9.261,-6.207 14.452,-2.095 3.499,2.772 5.272,2.871 7.571,0.424 0.962,-1.024 2.818,-2.076 4.124,-2.338 4.381,-0.879 5.037,-1.219 5.037,-2.614 0,-0.763 -0.541,-1.596 -1.203,-1.849 -1.453,-0.558 -44.417,-0.627 -44.417,-0.071 0,0.214 0.292,0.984 0.649,1.71 0.357,0.726 1.279,2.628 2.049,4.225 1.459,3.024 4.147,4.996 6.883,5.048 0.878,0.018 3.062,-1.081 4.855,-2.44 z"
           fill="#ffffff"
           data-name="layer1"
           id="path171" />
      </g>
      <g
         data-name="Artifact"
         id="g173">
        <path
           d="m 254.75,472.54 c 0.483,-0.583 1.894,-1.479 3.134,-1.993 3.553,-1.472 2.662,-2.271 -2.534,-2.271 -5.155,0 -6.615,0.789 -6.615,3.574 0,1.479 0.396,1.748 2.568,1.748 1.413,0 2.964,-0.476 3.447,-1.058 z"
           fill="#ffffff"
           data-name="layer1"
           id="path172" />
      </g>
      <g
         data-name="Artifact"
         id="g174">
        <path
           d="m 278.941,478.16 c 1.267,-0.997 3.084,-1.52 5.276,-1.52 2.4,0 3.478,-0.353 3.822,-1.251 0.96,-2.501 -1.824,-3.311 -11.37,-3.311 h -9.032 l 4.045,3.772 c 2.225,2.075 4.333,3.786 4.685,3.802 0.352,0.017 1.51,-0.655 2.574,-1.492 z"
           fill="#ffffff"
           data-name="layer1"
           id="path173" />
      </g>
      <g
         data-name="Artifact"
         id="g175">
        <path
           d="m 315.489,494.659 0.226,-5.171 3.956,0.228 3.956,0.229 0.451,10.338 4.155,-0.227 c 2.285,-0.125 4.151,-0.484 4.146,-0.797 -0.006,-0.314 -0.008,-4.43 -0.008,-9.147 v -8.576 l -6.468,-4.366 -6.467,-4.365 -6.838,4.598 -6.839,4.598 v 18.281 l 9.504,-0.453 z"
           fill="#ffffff"
           data-name="layer1"
           id="path174" />
      </g>
      <g
         data-name="Artifact"
         id="g176">
        <path
           d="m 263.181,486.524 c 0,-12.796 -0.091,-13.686 -1.402,-13.686 -0.772,0 -2.054,0.719 -2.85,1.599 -3.661,4.045 -8.134,4.718 -11.656,1.755 -1.937,-1.63 -2.339,-2.524 -2.339,-5.204 0,-5.034 1.647,-6.053 10.53,-6.513 l 7.337,-0.381 0.38,-17.487 c 0.418,-19.192 0.755,-20.663 5.568,-24.25 2.018,-1.505 3.077,-1.6 17.657,-1.6 15.081,0 15.557,0.047 17.224,1.714 2.42,2.42 2.386,7.408 -0.063,9.391 -2.287,1.852 -5.198,1.822 -8.072,-0.081 -3.384,-2.241 -4.844,-1.891 -8.433,2.018 -4.472,4.871 -6.746,4.786 -12.048,-0.45 -2.143,-2.117 -4.202,-3.849 -4.574,-3.849 -0.372,0 -1.302,0.566 -2.067,1.259 -1.135,1.027 -1.39,2.422 -1.39,7.603 0,3.489 0.086,6.339 0.19,6.333 0.104,-0.006 1.559,-0.504 3.231,-1.107 2.402,-0.865 8.161,-1.102 27.372,-1.126 22.716,-0.029 24.49,0.066 26.733,1.435 2.919,1.78 3.736,4.002 2.536,6.899 -0.844,2.037 -3.908,3.795 -6.618,3.795 -0.589,0 -2.334,1.005 -3.878,2.233 -4.989,3.97 -8.617,3.685 -13.013,-1.021 -2.399,-2.567 -3.277,-2.491 -6.708,0.585 -5.873,5.264 -9.641,6.128 -15.129,3.471 -2.706,-1.309 -3.632,-2.378 -5.514,-6.362 -2.41,-5.101 -3.841,-6.231 -6.252,-4.94 -2.293,1.227 -2.95,3.92 -2.95,12.093 v 7.48 l 10.49,0.263 c 12.838,0.322 14.6,1.076 14.6,6.246 0,4.312 -1.958,6.186 -6.336,6.067 -1.997,-0.055 -3.913,0.442 -5.186,1.345 -2.688,1.907 -6.127,1.833 -7.938,-0.171 -0.797,-0.882 -2.389,-2.273 -3.539,-3.093 l -2.091,-1.491 v 22.913 h 34.975 v -7.603 c 0,-4.181 -0.257,-7.598 -0.571,-7.591 -0.313,0.006 -1.072,0.329 -1.685,0.717 -1.219,0.771 -3.076,-0.307 -3.053,-1.772 0.009,-0.472 1.804,-2.041 3.992,-3.488 2.188,-1.447 7.318,-4.824 11.4,-7.503 l 7.422,-4.873 11.375,7.503 c 6.257,4.127 11.385,7.889 11.396,8.361 0.035,1.461 -1.826,2.544 -3.046,1.772 -2.745,-1.736 -3.078,-0.957 -2.853,6.684 l 0.217,7.413 24.511,0.417 1.613,-4.39 c 2.922,-7.96 3.886,-13.9 3.898,-24.032 0.017,-14.226 -3.124,-25.32 -10.472,-37.002 -4.683,-7.444 -14.749,-17.282 -22.38,-21.872 -27.581,-16.59 -63.118,-12.092 -85.248,10.79 -6.657,6.883 -10.548,12.589 -14.209,20.837 -4.014,9.044 -5.587,16.819 -5.563,27.501 0.02,9.277 1.39,17.211 4.165,24.14 l 1.598,3.991 h 28.716 z"
           fill="#ffffff"
           data-name="layer1"
           id="path175" />
      </g>
      <g
         data-name="Artifact"
         id="g177">
        <path
           d="m 262.409,513.449 c 5.414,-3.095 9.409,-3.2 14.725,-0.387 5.433,2.874 7.765,2.939 12.706,0.356 5.871,-3.07 9.357,-3.152 14.574,-0.346 5.433,2.922 7.569,2.932 13.632,0.063 6.049,-2.861 8.506,-2.861 13.945,0 5.424,2.853 7.396,2.853 13.427,0 2.651,-1.254 5.904,-2.28 7.229,-2.28 1.915,-0.001 2.734,-0.527 3.992,-2.562 0.87,-1.408 1.583,-2.948 1.583,-3.421 0,-0.634 -15.925,-0.861 -60.319,-0.861 -33.176,0 -60.527,0.208 -60.782,0.463 -0.255,0.255 0.418,1.794 1.495,3.421 1.603,2.423 2.402,2.959 4.413,2.959 1.35,0 4.298,1.008 6.551,2.241 5.092,2.785 8.416,2.876 12.829,0.354 z"
           fill="#ffffff"
           data-name="layer1"
           id="path176" />
      </g>
      <g
         data-name="Artifact"
         id="g178">
        <path
           d="m 262.758,526.506 c 5.34,-3.13 8.063,-3.235 13.673,-0.529 6.157,2.969 9.183,2.986 14.624,0.083 5.337,-2.848 7.04,-2.848 13.062,0.001 6.037,2.856 8.46,2.856 14.188,-0.001 2.509,-1.251 5.39,-2.276 6.402,-2.278 1.012,-0.002 4.173,1.073 7.025,2.387 l 5.185,2.39 2.859,-1.983 c 1.572,-1.091 4.901,-4.048 7.397,-6.572 5.027,-5.083 4.458,-5.898 -1.877,-2.688 -4.929,2.498 -8.436,2.405 -14.324,-0.38 -2.651,-1.255 -5.388,-2.279 -6.083,-2.278 -0.694,0.002 -3.315,1.027 -5.824,2.278 -5.997,2.991 -9.987,2.984 -15.587,-0.03 -2.3,-1.237 -4.866,-2.25 -5.702,-2.25 -0.836,0 -3.69,1.027 -6.341,2.281 -6.061,2.867 -9.143,2.867 -15.206,-10e-4 -2.651,-1.254 -5.397,-2.281 -6.102,-2.281 -0.705,0 -3.326,1.016 -5.825,2.258 -5.746,2.855 -9.378,2.924 -14.607,0.279 -2.202,-1.115 -4.217,-1.813 -4.477,-1.553 -1.082,1.081 11.052,12.702 13.263,12.702 0.63,0 2.554,-0.826 4.277,-1.835 z"
           fill="#ffffff"
           data-name="layer1"
           id="path177" />
      </g>
      <g
         data-name="Artifact"
         id="g179">
        <path
           d="m 312.873,539.309 c 5.378,-1.132 19.498,-6.848 19.498,-7.894 0,-0.309 -1.357,-1.174 -3.015,-1.922 -3.705,-1.67 -8.111,-1.235 -11.431,1.129 -3.933,2.8 -7.563,2.826 -13.225,0.096 -6.136,-2.96 -8.491,-2.976 -13.888,-0.096 -5.359,2.86 -7.831,2.86 -13.565,0 -2.509,-1.251 -5.691,-2.276 -7.07,-2.278 -2.635,-0.003 -6.996,1.851 -6.996,2.975 0,0.362 3.199,2.061 7.107,3.775 6.422,2.816 13.703,4.788 21.025,5.694 4.27,0.528 15.767,-0.261 21.56,-1.479 z"
           fill="#ffffff"
           data-name="layer1"
           id="path178" />
      </g>
      <g
         data-name="Artifact"
         id="g180">
        <path
           d="m 333.505,476.847 v -8.85 h -1.107 v -2.628 l 5.255,0.139 v 1.936 l -0.138,0.414 -0.83,0.139 0.277,11.892 -4.287,-2.627 z"
           fill="#ffffff"
           data-name="layer1"
           id="path179" />
      </g>
      <g
         data-name="Artifact"
         id="g181">
        <path
           d="m 331.845,460.529 c -0.765,-0.367 -0.548,-0.543 -0.829,-1.106 -0.029,-0.058 -0.123,-0.075 -0.139,-0.138 -0.033,-0.134 0.044,-0.284 0,-0.415 -0.014,-0.044 -0.105,0.033 -0.138,0 -0.065,-0.065 0.041,-0.194 0,-0.276 -0.158,-0.316 -0.759,-0.686 -0.83,-0.968 -0.085,-0.342 0.156,-0.933 0,-1.245 -0.105,-0.211 -0.311,-0.347 -0.414,-0.553 -0.058,-0.116 -0.058,-0.473 -0.139,-0.553 -0.317,-0.318 -0.276,0.036 -0.276,-0.277"
           fill="#ffffff"
           data-name="layer1"
           id="path180" />
      </g>
      <g
         data-name="Artifact"
         id="g182">
        <path
           d="m 327.005,445.042 c -0.481,-1.013 -0.765,-1.852 -0.415,-2.904 0.078,-0.233 -0.039,-0.595 0,-0.83 0.058,-0.343 0.196,-0.645 0.277,-0.968 0.148,-0.595 -0.159,-1.203 0.138,-1.798 0.02,-0.041 0.106,0.033 0.138,0 0.033,-0.032 -0.032,-0.106 0,-0.138 0.62,-0.619 0.584,-0.374 1.107,-1.245 0.112,-0.187 0.276,-0.174 0.276,-0.414"
           fill="#ffffff"
           data-name="layer1"
           id="path181" />
      </g>
      <g
         data-name="Artifact"
         id="g183">
        <path
           d="m 335.043,463.853 c -0.25,-1.009 -0.337,-2.747 -0.18,-3.566 0.227,-1.178 0.642,-1.955 2.652,-4.962 1.463,-2.189 2.361,-4.171 2.584,-5.706 0.207,-1.417 -0.283,-2.731 -1.508,-4.049 -0.97,-1.045 -2.122,-1.919 -4.479,-3.398 -1.053,-0.661 -2.335,-1.525 -2.849,-1.921 -1.878,-1.446 -3.197,-3.147 -3.848,-4.967 -0.354,-0.987 -0.725,-2.844 -0.719,-3.597 0.008,-1.117 0.703,-2.503 1.936,-3.857 1.393,-1.53 3.075,-2.798 6.04,-4.554 a 92.465,92.465 0 0 0 2.916,-1.817 c 0.772,-0.506 1.433,-0.92 1.468,-0.919 0.197,0.006 -2.694,2.532 -4.288,3.749 -2.874,2.192 -4.327,3.894 -5.111,5.984 -1.006,2.683 -0.239,4.918 2.41,7.017 1.024,0.812 2.01,1.444 4.155,2.664 0.991,0.564 2.143,1.275 2.56,1.58 2.065,1.515 3.369,3.152 3.969,4.982 0.345,1.054 0.348,2.894 0.008,4 -0.622,2.009 -1.467,3.297 -4.415,6.733 -2.518,2.935 -2.928,3.751 -3.037,6.04 l -0.065,1.355 z"
           fill="#ffffff"
           data-name="layer1"
           id="path182" />
      </g>
      <g
         data-name="Artifact"
         id="g184">
        <path
           d="m 332.483,463.869 c -0.25,-0.989 -0.338,-2.692 -0.18,-3.494 0.227,-1.154 0.642,-1.915 2.652,-4.861 1.463,-2.145 2.361,-4.088 2.584,-5.592 0.207,-1.388 -0.283,-2.675 -1.508,-3.967 -0.97,-1.024 -2.123,-1.88 -4.479,-3.329 -1.053,-0.648 -2.335,-1.494 -2.849,-1.882 -1.879,-1.417 -3.197,-3.084 -3.849,-4.868 -0.353,-0.966 -0.724,-2.785 -0.718,-3.523 0.008,-1.095 0.703,-2.453 1.936,-3.78 1.393,-1.499 3.075,-2.742 6.04,-4.462 a 91.074,91.074 0 0 0 2.915,-1.78 c 0.773,-0.496 1.433,-0.902 1.469,-0.901 0.197,0.003 -2.695,2.482 -4.289,3.673 -2.873,2.149 -4.326,3.816 -5.11,5.864 -1.007,2.629 -0.239,4.819 2.409,6.875 1.025,0.796 2.01,1.415 4.156,2.61 0.991,0.553 2.143,1.25 2.56,1.549 2.064,1.484 3.368,3.088 3.969,4.881 0.345,1.033 0.348,2.836 0.008,3.919 -0.622,1.969 -1.467,3.231 -4.415,6.597 -2.518,2.876 -2.928,3.675 -3.037,5.918 l -0.065,1.328 z"
           fill="#0a4776"
           data-name="layer1"
           id="path183" />
      </g>
      <g
         data-name="Artifact"
         id="g185">
        <path
           d="m 330.858,475.155 v -8.85 h -1.106 v -2.628 l 5.255,0.139 v 1.936 l -0.139,0.414 -0.829,0.139 0.276,11.892 -4.286,-2.627 z"
           fill="#0a4776"
           data-name="layer1"
           id="path184" />
      </g>
    </g>
  </g>
</svg>
