<?xml version="1.0" encoding="UTF-8"?>
<svg width="32" height="32" viewBox="225 395 145 155" version="1.1" xmlns="http://www.w3.org/2000/svg">
  <title>The Little Sauna Company Favicon</title>
  <g transform="matrix(0.69628809,0,0,0.69628809,-102.62403,-178.24634)">
    <!-- Circle background -->
    <path d="m 297.638,402.99 c 38.047,0 68.936,30.91 68.936,68.983 0,38.072 -30.889,68.982 -68.936,68.982 -38.047,0 -68.936,-30.91 -68.936,-68.982 0,-38.073 30.889,-68.983 68.936,-68.983 z" fill="#0a4776" fill-rule="evenodd"/>
    <path stroke-width="9.5" stroke-linecap="round" stroke-linejoin="round" fill="none" stroke="#0a4776" d="m 297.638,402.99 c 38.047,0 68.936,30.91 68.936,68.983 0,38.072 -30.889,68.982 -68.936,68.982 -38.047,0 -68.936,-30.91 -68.936,-68.982 0,-38.073 30.889,-68.983 68.936,-68.983 z"/>
    
    <!-- Simplified sauna house icon -->
    <path d="m 315.489,494.659 0.226,-5.171 3.956,0.228 3.956,0.229 0.451,10.338 4.155,-0.227 c 2.285,-0.125 4.151,-0.484 4.146,-0.797 -0.006,-0.314 -0.008,-4.43 -0.008,-9.147 v -8.576 l -6.468,-4.366 -6.467,-4.365 -6.838,4.598 -6.839,4.598 v 18.281 l 9.504,-0.453 z" fill="#ffffff"/>
    
    <!-- Steam lines -->
    <path d="m 335.043,463.853 c -0.25,-1.009 -0.337,-2.747 -0.18,-3.566 0.227,-1.178 0.642,-1.955 2.652,-4.962 1.463,-2.189 2.361,-4.171 2.584,-5.706 0.207,-1.417 -0.283,-2.731 -1.508,-4.049 -0.97,-1.045 -2.122,-1.919 -4.479,-3.398 -1.053,-0.661 -2.335,-1.525 -2.849,-1.921 -1.878,-1.446 -3.197,-3.147 -3.848,-4.967 -0.354,-0.987 -0.725,-2.844 -0.719,-3.597 0.008,-1.117 0.703,-2.503 1.936,-3.857 1.393,-1.53 3.075,-2.798 6.04,-4.554 a 92.465,92.465 0 0 0 2.916,-1.817 c 0.772,-0.506 1.433,-0.92 1.468,-0.919 0.197,0.006 -2.694,2.532 -4.288,3.749 -2.874,2.192 -4.327,3.894 -5.111,5.984 -1.006,2.683 -0.239,4.918 2.41,7.017 1.024,0.812 2.01,1.444 4.155,2.664 0.991,0.564 2.143,1.275 2.56,1.58 2.065,1.515 3.369,3.152 3.969,4.982 0.345,1.054 0.348,2.894 0.008,4 -0.622,2.009 -1.467,3.297 -4.415,6.733 -2.518,2.935 -2.928,3.751 -3.037,6.04 l -0.065,1.355 z" fill="#ffffff"/>
  </g>
</svg>
